#!OML:ASF G:\JayActor3\Patient Classification 1\Patient 1\Session 5\male.ASF
:FULLY-SPECIFIED
:DEGREES
1087
root -49.7697 14.4828 -6.9037 318.373 -87.6035 -300.838
lowerback 28.3819 -1.00934 1.18347
upperback 6.99697 -1.66146 -1.20966
thorax -7.88711 -1.04377 -1.43005
lowerneck -2.92325 -0.646481 1.77082
upperneck -15.9999 -1.11136 1.78571
head -4.79464 -0.963141 0.351778
rclavicle 3.77691e-015 1.3418e-014
rhumerus -22.879 3.67212 -87.5659
rradius 46.9529
rwrist -11.069
rhand -19.2482 -8.70483
rfingers 7.12502
rthumb 7.06556 -38.5669
lclavicle 3.77691e-015 1.3418e-014
lhumerus -22.3407 -2.87681 82.7857
lradius 49.3582
lwrist 28.5188
lhand -16.5 29.6089
lfingers 7.12502
lthumb 9.71777 59.3647
rfemur -74.1529 1.8107 22.8545
rtibia 72.3744
rfoot -24.1858 -5.09294
rtoes 5.37091
lfemur -60.2289 9.94463 -22.6858
ltibia 97.0639
lfoot -0.451888 -8.82208
ltoes -15.3156
1088
root -49.873 14.4614 -6.93042 319.627 -87.6379 -302.258
lowerback 28.5301 -0.979068 1.19624
upperback 7.0222 -1.62295 -1.20673
thorax -7.9297 -1.02775 -1.44528
lowerneck -2.83222 -0.672545 1.77844
upperneck -16.045 -1.13988 1.80943
head -4.82947 -0.979429 0.360699
rclavicle -5.96354e-016 -2.42517e-014
rhumerus -22.9008 3.69896 -87.5527
rradius 47.0406
rwrist -11.1037
rhand -19.2889 -8.85118
rfingers 7.12502
rthumb 7.02632 -38.7146
lclavicle -5.96354e-016 -2.42517e-014
lhumerus -22.3538 -2.87263 82.7715
lradius 49.4643
lwrist 28.621
lhand -16.5758 29.5593
lfingers 7.12502
lthumb 9.64469 59.3185
rfemur -73.8317 1.84517 23.1017
rtibia 73.0776
rfoot -24.9807 -4.84067
rtoes 5.28495
lfemur -61.018 9.96016 -22.2026
ltibia 98.1833
lfoot 0.309146 -9.11627
ltoes -13.8114
1089
root -49.9745 14.4547 -6.95672 320.977 -87.6747 -303.773
lowerback 28.6652 -0.953284 1.21819
upperback 7.05091 -1.58766 -1.20311
thorax -7.96206 -1.01336 -1.46427
lowerneck -2.76055 -0.691007 1.77332
upperneck -16.0654 -1.15838 1.83284
head -4.85112 -0.989249 0.370987
rclavicle -6.95746e-015 1.69961e-014
rhumerus -22.8994 3.72053 -87.5361
rradius 47.1048
rwrist -11.1355
rhand -19.3463 -8.98996
rfingers 7.12502
rthumb 6.97084 -38.8552
lclavicle -6.95746e-015 1.69961e-014
lhumerus -22.3609 -2.84819 82.7545
lradius 49.5357
lwrist 28.6903
lhand -16.6134 29.3676
lfingers 7.12502
lthumb 9.60832 59.1285
rfemur -73.4156 1.86289 23.3538
rtibia 73.6401
rfoot -25.6019 -4.6258
rtoes 5.10583
lfemur -61.7491 9.95615 -21.7736
ltibia 99.0486
lfoot 0.49059 -9.36314
ltoes -12.7022
1090
root -50.0755 14.4473 -6.98212 322.058 -87.7095 -305.011
lowerback 28.7879 -0.925689 1.22821
upperback 7.08095 -1.55373 -1.20171
thorax -7.98666 -0.99944 -1.47868
lowerneck -2.71923 -0.696855 1.75209
upperneck -16.0522 -1.16041 1.85541
head -4.85393 -0.98894 0.382584
rclavicle 6.06293e-015 -3.27995e-015
rhumerus -22.8703 3.73727 -87.5157
rradius 47.1322
rwrist -11.1561
rhand -19.399 -9.10547
rfingers 7.12502
rthumb 6.92001 -38.9724
lclavicle 6.06293e-015 -3.27995e-015
lhumerus -22.3598 -2.79622 82.7307
lradius 49.5181
lwrist 28.6827
lhand -16.5703 28.6638
lfingers 7.12502
lthumb 9.64998 58.4227
rfemur -73.0233 1.88025 23.5909
rtibia 74.1167
rfoot -25.9434 -4.56758
rtoes 4.82104
lfemur -62.5122 9.93395 -21.4229
ltibia 99.734
lfoot 0.221895 -9.57961
ltoes -11.8146
1091
root -50.1761 14.4395 -7.00623 323.33 -87.7273 -306.423
lowerback 28.8864 -0.910017 1.24161
upperback 7.10811 -1.53357 -1.20273
thorax -8.00326 -0.99172 -1.49336
lowerneck -2.74128 -0.702094 1.71366
upperneck -15.9765 -1.16146 1.89386
head -4.82049 -0.986293 0.401239
rclavicle 2.98177e-015 -2.15681e-014
rhumerus -22.8227 3.74772 -87.4948
rradius 47.1258
rwrist -11.1573
rhand -19.4429 -9.15064
rfingers 7.12502
rthumb 6.87759 -39.0189
lclavicle 2.98177e-015 -2.15681e-014
lhumerus -22.3653 -2.73846 82.7093
lradius 49.3719
lwrist 28.7099
lhand -16.6859 26.8438
lfingers 7.12502
lthumb 9.53841 56.6079
rfemur -72.6412 1.86605 23.8216
rtibia 74.5412
rfoot -26.21 -4.5746
rtoes 4.55795
lfemur -63.3298 9.84458 -21.1525
ltibia 100.206
lfoot -0.390748 -9.77495
ltoes -11.3135
1092
root -50.2759 14.4322 -7.02935 324.685 -87.7316 -307.902
lowerback 28.9703 -0.902072 1.25483
upperback 7.13082 -1.52278 -1.20542
thorax -8.01817 -0.988135 -1.50676
lowerneck -2.80145 -0.705148 1.66771
upperneck -15.8648 -1.16002 1.93724
head -4.76602 -0.981307 0.421985
rclavicle -5.1684e-015 4.57205e-015
rhumerus -22.7686 3.76467 -87.4774
rradius 47.0975
rwrist -11.1242
rhand -19.5104 -9.16089
rfingers 7.12502
rthumb 6.81248 -39.0313
lclavicle -5.1684e-015 4.57205e-015
lhumerus -22.375 -2.67875 82.6916
lradius 49.1257
lwrist 28.7542
lhand -16.8944 24.1839
lfingers 7.12502
lthumb 9.3372 53.9571
rfemur -72.2717 1.82888 24.0436
rtibia 74.9359
rfoot -26.4573 -4.62383
rtoes 4.34151
lfemur -64.1714 9.70583 -20.9494
ltibia 100.467
lfoot -1.17353 -9.97295
ltoes -10.9503
1093
root -50.3752 14.4251 -7.05201 326.108 -87.7275 -309.431
lowerback 29.0443 -0.895967 1.26732
upperback 7.14809 -1.5138 -1.20742
thorax -8.03446 -0.985136 -1.51846
lowerneck -2.87474 -0.71398 1.64062
upperneck -15.7549 -1.16852 1.9699
head -4.70998 -0.982078 0.435987
rclavicle -6.75868e-015 -2.03754e-014
rhumerus -22.7159 3.78963 -87.4628
rradius 47.0159
rwrist -10.9928
rhand -19.683 -8.92978
rfingers 7.12502
rthumb 6.64585 -38.8055
lclavicle -6.75868e-015 -2.03754e-014
lhumerus -22.3875 -2.64398 82.6894
lradius 48.8631
lwrist 28.8753
lhand -17.2463 21.3087
lfingers 7.12502
lthumb 8.99769 51.0968
rfemur -71.9201 1.77857 24.2616
rtibia 75.3208
rfoot -26.7472 -4.67661
rtoes 4.14783
lfemur -65.0454 9.5349 -20.8036
ltibia 100.525
lfoot -2.01264 -10.1698
ltoes -10.5956
